<svg xmlns="http://www.w3.org/2000/svg" xmlns:xlink="http://www.w3.org/1999/xlink" width="1463pt" height="1262pt" viewBox="0 0 1463.37 1262"><g id="graph0" class="graph" transform="scale(1 1) rotate(0) translate(4 1258)"><title>%3</title><polygon fill="#fff" stroke="transparent" points="-4 4 -4 -1258 1459.375 -1258 1459.375 4 -4 4"/><g id="clust1" class="cluster"><title>cluster-nid-02</title><polygon fill="none" stroke="#ccc" points="8 -376 8 -446 422.625 -446 422.625 -376 8 -376"/></g><g id="clust2" class="cluster"><title>cluster-nid-03</title><polygon fill="none" stroke="#ccc" points="8 -291 8 -361 422.625 -361 422.625 -291 8 -291"/></g><g id="clust5" class="cluster"><title>cluster-nid-06</title><polygon fill="none" stroke="#ccc" points="343.562 -107 343.562 -177 431.687 -177 431.687 -107 343.562 -107"/></g><g id="clust6" class="cluster"><title>cluster-nid-07</title><polygon fill="none" stroke="#ccc" points="1080.187 -943 1080.187 -1013 1447.375 -1013 1447.375 -943 1080.187 -943"/></g><g id="clust7" class="cluster"><title>cluster-nid-08</title><polygon fill="none" stroke="#ccc" points="1080.187 -763 1080.187 -833 1447.375 -833 1447.375 -763 1080.187 -763"/></g><g id="clust8" class="cluster"><title>cluster-nid-09</title><polygon fill="none" stroke="#ccc" points="1080.187 -663 1080.187 -733 1447.375 -733 1447.375 -663 1080.187 -663"/></g><g id="clust9" class="cluster"><title>cluster-nid-0a</title><polygon fill="none" stroke="#ccc" points="1071.125 -1077 1071.125 -1147 1159.25 -1147 1159.25 -1077 1071.125 -1077"/></g><g id="clust18" class="cluster"><title>cluster-nid-12-out</title><polygon fill="none" stroke="#ccc" points="308.625 -794 308.625 -878 466.625 -878 466.625 -794 308.625 -794"/></g><g id="clust20" class="cluster"><title>cluster-nid-13-out</title><polygon fill="none" stroke="#ccc" points="308.625 -978 308.625 -1062 466.625 -1062 466.625 -978 308.625 -978"/></g><g id="clust21" class="cluster"><title>cluster-nid-14-in</title><polygon fill="none" stroke="#ccc" points="686.625 -560 686.625 -644 863.625 -644 863.625 -560 686.625 -560"/></g><g id="clust23" class="cluster"><title>cluster-nid-15-in</title><polygon fill="none" stroke="#ccc" points="686.625 -192 686.625 -276 863.625 -276 863.625 -192 686.625 -192"/></g><g id="clust25" class="cluster"><title>cluster-nid-16-in</title><polygon fill="none" stroke="#ccc" points="686.625 -468 686.625 -552 863.625 -552 863.625 -468 686.625 -468"/></g><g id="clust27" class="cluster"><title>cluster-nid-17-in</title><polygon fill="none" stroke="#ccc" points="686.625 -100 686.625 -184 863.625 -184 863.625 -100 686.625 -100"/></g><g id="clust30" class="cluster"><title>cluster-nid-18-out</title><polygon fill="none" stroke="#ccc" points="299.125 -886 299.125 -970 476.125 -970 476.125 -886 299.125 -886"/></g><g id="clust32" class="cluster"><title>cluster-nid-19-out</title><polygon fill="none" stroke="#ccc" points="299.125 -702 299.125 -786 476.125 -786 476.125 -702 299.125 -702"/></g><g id="clust34" class="cluster"><title>cluster-nid-1a-out</title><polygon fill="none" stroke="#ccc" points="299.125 -610 299.125 -694 476.125 -694 476.125 -610 299.125 -610"/></g><g id="clust35" class="cluster"><title>cluster-nid-1b-in</title><polygon fill="none" stroke="#ccc" points="683.625 -376 683.625 -460 1150.187 -460 1150.187 -376 683.625 -376"/></g><g id="clust36" class="cluster"><title>cluster-nid-1b-out</title><polygon fill="none" stroke="#ccc" points="17.062 -518 17.062 -602 479.125 -602 479.125 -518 17.062 -518"/></g><g id="clust40" class="cluster"><title>cluster-nid-1e-in</title><polygon fill="none" stroke="#ccc" points="679.125 -8 679.125 -92 871.125 -92 871.125 -8 679.125 -8"/></g><g id="clust43" class="cluster"><title>cluster-nid-1f-out</title><polygon fill="none" stroke="#ccc" points="299.125 -1162 299.125 -1246 476.125 -1246 476.125 -1162 299.125 -1162"/></g><g id="clust45" class="cluster"><title>cluster-nid-21-in</title><polygon fill="none" stroke="#ccc" points="685.125 -284 685.125 -368 865.125 -368 865.125 -284 685.125 -284"/></g><g id="clust47" class="cluster"><title>cluster-nid-22</title><polygon fill="none" stroke="#ccc" points="714.25 -652 714.25 -744 835.999 -744 835.999 -652 714.25 -652"/></g><g id="clust48" class="cluster"><title>cluster-nid-23</title><polygon fill="none" stroke="#ccc" points="714.25 -752 714.25 -844 835.999 -844 835.999 -752 714.25 -752"/></g><g id="clust49" class="cluster"><title>cluster-nid-24</title><polygon fill="none" stroke="#ccc" points="714.25 -932 714.25 -1024 835.999 -1024 835.999 -932 714.25 -932"/></g><g id="clust50" class="cluster"><title>cluster-nid-25</title><polygon fill="none" stroke="#ccc" points="715.287 -1066 715.287 -1158 834.962 -1158 834.962 -1066 715.287 -1066"/></g><g id="clust55" class="cluster"><title>cluster-nid-29-out</title><polygon fill="none" stroke="#ccc" points="299.125 -1070 299.125 -1154 476.125 -1154 476.125 -1070 299.125 -1070"/></g><g id="node1" class="node"><title>nid-02</title><ellipse cx="52.062" cy="-411" fill="none" stroke="#00f" rx="36.125" ry="26.741"/><text x="52.062" y="-414.8" fill="#000" font-family="Times,serif" font-size="14" text-anchor="middle">0x02</text><text x="52.062" y="-399.8" fill="#000" font-family="Times,serif" font-size="14" text-anchor="middle">Stereo</text></g><g id="node2" class="node"><title>nid-02-ampout</title><polygon fill="none" stroke="#00f" points="414.625 -411 374.125 -429 374.125 -393 414.625 -411"/></g><g id="edge1" class="edge"><title>nid-02-&gt;nid-02-ampout</title><path fill="none" stroke="#00f" d="M88.2923,-411C159.4006,-411 314.9922,-411 368.8408,-411"/><polygon fill="#00f" stroke="#00f" points="369.021 -412.75 374.021 -411 369.021 -409.25 369.021 -412.75"/></g><g id="node19" class="node"><title>nid-14-in</title><polygon fill="none" stroke="#0f0" points="855.625 -636 694.625 -636 694.625 -568 855.625 -568 855.625 -636"/><text x="775.125" y="-620.8" fill="#000" font-family="Times,serif" font-size="14" text-anchor="middle">0x14</text><text x="775.125" y="-605.8" fill="#000" font-family="Times,serif" font-size="14" text-anchor="middle">[N/A] Speaker at Ext Rear</text><text x="775.125" y="-590.8" fill="#000" font-family="Times,serif" font-size="14" text-anchor="middle">Stereo</text><text x="775.125" y="-575.8" fill="#000" font-family="Times,serif" font-size="14" text-anchor="middle">OUT EAPD</text></g><g id="edge10" class="edge"><title>nid-02-ampout-&gt;nid-14-in</title><path fill="none" stroke="#333" d="M400.3778,-417.4275C440.9825,-437.8745 570.9382,-503.1764 679.1249,-556 684.1071,-558.4326 689.24,-560.9268 694.4197,-563.4348"/><polygon fill="#333" stroke="#333" points="693.245 -566.754 703.772 -567.953 696.29 -560.451 693.245 -566.754"/></g><g id="node20" class="node"><title>nid-15-in</title><polygon fill="none" stroke="#0f0" points="855.625 -268 694.625 -268 694.625 -200 855.625 -200 855.625 -268"/><text x="775.125" y="-252.8" fill="#000" font-family="Times,serif" font-size="14" text-anchor="middle">0x15</text><text x="775.125" y="-237.8" fill="#000" font-family="Times,serif" font-size="14" text-anchor="middle">[N/A] Speaker at Ext Rear</text><text x="775.125" y="-222.8" fill="#000" font-family="Times,serif" font-size="14" text-anchor="middle">Stereo</text><text x="775.125" y="-207.8" fill="#000" font-family="Times,serif" font-size="14" text-anchor="middle">OUT HP EAPD Detect</text></g><g id="edge11" class="edge"><title>nid-02-ampout-&gt;nid-15-in</title><path fill="none" stroke="#333" d="M400.9635,-404.9073C446.0867,-384.2962 595.5345,-316.0322 691.3441,-272.2689"/><polygon fill="#333" stroke="#333" points="692.802 -275.451 700.443 -268.113 689.893 -269.084 692.802 -275.451"/></g><g id="node21" class="node"><title>nid-16-in</title><polygon fill="none" stroke="#0f0" points="855.625 -544 694.625 -544 694.625 -476 855.625 -476 855.625 -544"/><text x="775.125" y="-528.8" fill="#000" font-family="Times,serif" font-size="14" text-anchor="middle">0x16</text><text x="775.125" y="-513.8" fill="#000" font-family="Times,serif" font-size="14" text-anchor="middle">[N/A] Speaker at Ext Rear</text><text x="775.125" y="-498.8" fill="#000" font-family="Times,serif" font-size="14" text-anchor="middle">Stereo</text><text x="775.125" y="-483.8" fill="#000" font-family="Times,serif" font-size="14" text-anchor="middle">OUT EAPD Detect</text></g><g id="edge14" class="edge"><title>nid-02-ampout-&gt;nid-16-in</title><path fill="none" stroke="#333" d="M404.7753,-415.3816C452.8024,-427.6518 591.2095,-463.0126 684.5362,-486.856"/><polygon fill="#333" stroke="#333" points="683.714 -490.258 694.269 -489.343 685.447 -483.476 683.714 -490.258"/></g><g id="node22" class="node"><title>nid-17-in</title><polygon fill="none" stroke="#0f0" points="855.625 -176 694.625 -176 694.625 -108 855.625 -108 855.625 -176"/><text x="775.125" y="-160.8" fill="#000" font-family="Times,serif" font-size="14" text-anchor="middle">0x17</text><text x="775.125" y="-145.8" fill="#000" font-family="Times,serif" font-size="14" text-anchor="middle">[N/A] Speaker at Ext Rear</text><text x="775.125" y="-130.8" fill="#000" font-family="Times,serif" font-size="14" text-anchor="middle">Stereo</text><text x="775.125" y="-115.8" fill="#000" font-family="Times,serif" font-size="14" text-anchor="middle">OUT HP EAPD Detect</text></g><g id="edge16" class="edge"><title>nid-02-ampout-&gt;nid-17-in</title><path fill="none" stroke="#333" d="M401.8893,-405.2033C420.4427,-397.362 453.507,-382.3443 479.1249,-365 577.4162,-298.4531 580.2062,-253.6108 679.1249,-188 682.6335,-185.6728 686.2779,-183.3955 690.0061,-181.1777"/><polygon fill="#333" stroke="#333" points="691.9 -184.126 698.833 -176.115 688.417 -178.054 691.9 -184.126"/></g><g id="node26" class="node"><title>nid-1b-in</title><polygon fill="none" stroke="#0f0" points="858.625 -452 691.625 -452 691.625 -384 858.625 -384 858.625 -452"/><text x="775.125" y="-436.8" fill="#000" font-family="Times,serif" font-size="14" text-anchor="middle">0x1b</text><text x="775.125" y="-421.8" fill="#000" font-family="Times,serif" font-size="14" text-anchor="middle">[Jack] Line Out at Ext Rear</text><text x="775.125" y="-406.8" fill="#000" font-family="Times,serif" font-size="14" text-anchor="middle">Stereo</text><text x="775.125" y="-391.8" fill="#000" font-family="Times,serif" font-size="14" text-anchor="middle">IN OUT EAPD Detect</text></g><g id="edge21" class="edge"><title>nid-02-ampout-&gt;nid-1b-in</title><path fill="none" stroke="#333" d="M413.6516,-411.4702C467.4356,-412.4417 593.1525,-414.7128 681.1322,-416.3021"/><polygon fill="#333" stroke="#333" points="681.337 -419.806 691.398 -416.488 681.463 -412.807 681.337 -419.806"/></g><g id="node32" class="node"><title>nid-21-in</title><polygon fill="none" stroke="#0f0" points="857.125 -360 693.125 -360 693.125 -292 857.125 -292 857.125 -360"/><text x="775.125" y="-344.8" fill="#000" font-family="Times,serif" font-size="14" text-anchor="middle">0x21</text><text x="775.125" y="-329.8" fill="#000" font-family="Times,serif" font-size="14" text-anchor="middle">[Jack] HP Out at Ext Front</text><text x="775.125" y="-314.8" fill="#000" font-family="Times,serif" font-size="14" text-anchor="middle">Stereo</text><text x="775.125" y="-299.8" fill="#000" font-family="Times,serif" font-size="14" text-anchor="middle">OUT HP EAPD Detect</text></g><g id="edge24" class="edge"><title>nid-02-ampout-&gt;nid-21-in</title><path fill="none" stroke="silver" stroke-dasharray="5 2" d="M405.7951,-407.0143C454.4474,-396.3422 590.2578,-366.5515 682.9027,-346.2294"/><polygon fill="silver" stroke="silver" points="683.834 -349.608 692.852 -344.047 682.334 -342.771 683.834 -349.608"/></g><g id="node3" class="node"><title>nid-03</title><ellipse cx="52.062" cy="-326" fill="none" stroke="#00f" rx="36.125" ry="26.741"/><text x="52.062" y="-329.8" fill="#000" font-family="Times,serif" font-size="14" text-anchor="middle">0x03</text><text x="52.062" y="-314.8" fill="#000" font-family="Times,serif" font-size="14" text-anchor="middle">Stereo</text></g><g id="node4" class="node"><title>nid-03-ampout</title><polygon fill="none" stroke="#00f" points="414.625 -326 374.125 -344 374.125 -308 414.625 -326"/></g><g id="edge2" class="edge"><title>nid-03-&gt;nid-03-ampout</title><path fill="none" stroke="#00f" d="M88.2923,-326C159.4006,-326 314.9922,-326 368.8408,-326"/><polygon fill="#00f" stroke="#00f" points="369.021 -327.75 374.021 -326 369.021 -324.25 369.021 -327.75"/></g><g id="edge12" class="edge"><title>nid-03-ampout-&gt;nid-15-in</title><path fill="none" stroke="silver" stroke-dasharray="5 2" d="M405.2819,-321.8079C453.7808,-310.2933 591.6039,-277.5714 684.6054,-255.4911"/><polygon fill="silver" stroke="silver" points="685.665 -258.837 694.587 -253.121 684.048 -252.026 685.665 -258.837"/></g><g id="edge15" class="edge"><title>nid-03-ampout-&gt;nid-16-in</title><path fill="none" stroke="silver" stroke-dasharray="5 2" d="M400.9635,-332.3337C446.5379,-353.9742 598.5339,-426.1478 694.2022,-471.5748"/><polygon fill="silver" stroke="silver" points="692.744 -474.757 703.279 -475.885 695.747 -468.434 692.744 -474.757"/></g><g id="edge17" class="edge"><title>nid-03-ampout-&gt;nid-17-in</title><path fill="none" stroke="silver" stroke-dasharray="5 2" d="M400.9635,-319.6663C446.5379,-298.0258 598.5339,-225.8522 694.2022,-180.4252"/><polygon fill="silver" stroke="silver" points="695.747 -183.566 703.279 -176.115 692.744 -177.243 695.747 -183.566"/></g><g id="edge22" class="edge"><title>nid-03-ampout-&gt;nid-1b-in</title><path fill="none" stroke="silver" stroke-dasharray="5 2" d="M405.2819,-330.1921C453.2094,-341.571 588.3686,-373.6604 681.2997,-395.7241"/><polygon fill="silver" stroke="silver" points="680.746 -399.19 691.284 -398.094 682.363 -392.379 680.746 -399.19"/></g><g id="edge25" class="edge"><title>nid-03-ampout-&gt;nid-21-in</title><path fill="none" stroke="#333" d="M414.8731,-326C469.6406,-326 595.2887,-326 682.6793,-326"/><polygon fill="#333" stroke="#333" points="682.873 -329.5 692.873 -326 682.873 -322.5 682.873 -329.5"/></g><g id="node5" class="node"><title>nid-06</title><ellipse cx="387.625" cy="-142" fill="none" stroke="#00f" rx="36.125" ry="26.741"/><text x="387.625" y="-145.8" fill="#000" font-family="Times,serif" font-size="14" text-anchor="middle">0x06</text><text x="387.625" y="-130.8" fill="#000" font-family="Times,serif" font-size="14" text-anchor="middle">Stereo</text></g><g id="edge13" class="edge"><title>nid-06-&gt;nid-15-in</title><path fill="none" stroke="silver" stroke-dasharray="5 2" d="M422.0129,-150.1644C480.3641,-164.0181 600.5903,-192.5621 684.4592,-212.4742"/><polygon fill="silver" stroke="silver" points="683.706 -215.893 694.244 -214.797 685.323 -209.082 683.706 -215.893"/></g><g id="edge18" class="edge"><title>nid-06-&gt;nid-17-in</title><path fill="none" stroke="silver" stroke-dasharray="5 2" d="M423.732,-142C482.6201,-142 601.0921,-142 684.13,-142"/><polygon fill="silver" stroke="silver" points="684.328 -145.5 694.328 -142 684.328 -138.5 684.328 -145.5"/></g><g id="node30" class="node"><title>nid-1e-in</title><polygon fill="none" stroke="#0f0" points="863.125 -84 687.125 -84 687.125 -16 863.125 -16 863.125 -84"/><text x="775.125" y="-68.8" fill="#000" font-family="Times,serif" font-size="14" text-anchor="middle">0x1e</text><text x="775.125" y="-53.8" fill="#000" font-family="Times,serif" font-size="14" text-anchor="middle">[Jack] SPDIF Out at Ext Left</text><text x="775.125" y="-38.8" fill="#000" font-family="Times,serif" font-size="14" text-anchor="middle">Stereo</text><text x="775.125" y="-23.8" fill="#000" font-family="Times,serif" font-size="14" text-anchor="middle">OUT Detect</text></g><g id="edge23" class="edge"><title>nid-06-&gt;nid-1e-in</title><path fill="none" stroke="#333" d="M422.0129,-133.8356C478.6715,-120.3838 593.6674,-93.0815 677.0713,-73.2798"/><polygon fill="#333" stroke="#333" points="677.903 -76.68 686.824 -70.964 676.286 -69.869 677.903 -76.68"/></g><g id="node6" class="node"><title>nid-07</title><ellipse cx="1403.312" cy="-978" fill="none" stroke="red" rx="36.125" ry="26.741"/><text x="1403.312" y="-981.8" fill="#000" font-family="Times,serif" font-size="14" text-anchor="middle">0x07</text><text x="1403.312" y="-966.8" fill="#000" font-family="Times,serif" font-size="14" text-anchor="middle">Stereo</text></g><g id="node7" class="node"><title>nid-07-ampin</title><polygon fill="none" stroke="#3232f1" points="1142.187 -978 1101.687 -996 1101.687 -960 1142.187 -978"/></g><g id="edge3" class="edge"><title>nid-07-ampin-&gt;nid-07</title><path fill="none" stroke="#3232f1" d="M1142.2934,-978C1192.8792,-978 1301.9457,-978 1361.8407,-978"/><polygon fill="#3232f1" stroke="#3232f1" points="1362.126 -979.75 1367.126 -978 1362.126 -976.25 1362.126 -979.75"/></g><g id="node8" class="node"><title>nid-24</title><polygon fill="none" stroke="#000" points="827.874 -1016 743.962 -1016 722.376 -940 806.288 -940 827.874 -1016"/><text x="775.125" y="-981.8" fill="#000" font-family="Times,serif" font-size="14" text-anchor="middle">0x24</text><text x="775.125" y="-966.8" fill="#000" font-family="Times,serif" font-size="14" text-anchor="middle">Stereo</text></g><g id="edge4" class="edge"><title>nid-24-&gt;nid-07-ampin</title><path fill="none" stroke="#333" d="M817.1643,-978C889.3006,-978 1034.3899,-978 1091.4058,-978"/><polygon fill="#333" stroke="#333" points="1091.587 -981.5 1101.587 -978 1091.587 -974.5 1091.587 -981.5"/></g><g id="node9" class="node"><title>nid-08</title><ellipse cx="1403.312" cy="-798" fill="none" stroke="red" rx="36.125" ry="26.741"/><text x="1403.312" y="-801.8" fill="#000" font-family="Times,serif" font-size="14" text-anchor="middle">0x08</text><text x="1403.312" y="-786.8" fill="#000" font-family="Times,serif" font-size="14" text-anchor="middle">Stereo</text></g><g id="node10" class="node"><title>nid-08-ampin</title><polygon fill="none" stroke="#c8c8c8" points="1142.187 -798 1101.687 -816 1101.687 -780 1142.187 -798"/></g><g id="edge5" class="edge"><title>nid-08-ampin-&gt;nid-08</title><path fill="none" stroke="#c8c8c8" d="M1142.2934,-798C1192.8792,-798 1301.9457,-798 1361.8407,-798"/><polygon fill="#c8c8c8" stroke="#c8c8c8" points="1362.126 -799.75 1367.126 -798 1362.126 -796.25 1362.126 -799.75"/></g><g id="node11" class="node"><title>nid-23</title><polygon fill="none" stroke="#000" points="827.874 -836 743.962 -836 722.376 -760 806.288 -760 827.874 -836"/><text x="775.125" y="-801.8" fill="#000" font-family="Times,serif" font-size="14" text-anchor="middle">0x23</text><text x="775.125" y="-786.8" fill="#000" font-family="Times,serif" font-size="14" text-anchor="middle">Stereo</text></g><g id="edge6" class="edge"><title>nid-23-&gt;nid-08-ampin</title><path fill="none" stroke="#333" d="M817.1643,-798C889.3006,-798 1034.3899,-798 1091.4058,-798"/><polygon fill="#333" stroke="#333" points="1091.587 -801.5 1101.587 -798 1091.587 -794.5 1091.587 -801.5"/></g><g id="node12" class="node"><title>nid-09</title><ellipse cx="1403.312" cy="-698" fill="none" stroke="red" rx="36.125" ry="26.741"/><text x="1403.312" y="-701.8" fill="#000" font-family="Times,serif" font-size="14" text-anchor="middle">0x09</text><text x="1403.312" y="-686.8" fill="#000" font-family="Times,serif" font-size="14" text-anchor="middle">Stereo</text></g><g id="node13" class="node"><title>nid-09-ampin</title><polygon fill="none" stroke="#c8c8c8" points="1142.187 -698 1101.687 -716 1101.687 -680 1142.187 -698"/></g><g id="edge7" class="edge"><title>nid-09-ampin-&gt;nid-09</title><path fill="none" stroke="#c8c8c8" d="M1142.2934,-698C1192.8792,-698 1301.9457,-698 1361.8407,-698"/><polygon fill="#c8c8c8" stroke="#c8c8c8" points="1362.126 -699.75 1367.126 -698 1362.126 -696.25 1362.126 -699.75"/></g><g id="node14" class="node"><title>nid-22</title><polygon fill="none" stroke="#000" points="827.874 -736 743.962 -736 722.376 -660 806.288 -660 827.874 -736"/><text x="775.125" y="-701.8" fill="#000" font-family="Times,serif" font-size="14" text-anchor="middle">0x22</text><text x="775.125" y="-686.8" fill="#000" font-family="Times,serif" font-size="14" text-anchor="middle">Stereo</text></g><g id="edge8" class="edge"><title>nid-22-&gt;nid-09-ampin</title><path fill="none" stroke="#333" d="M817.1643,-698C889.3006,-698 1034.3899,-698 1091.4058,-698"/><polygon fill="#333" stroke="#333" points="1091.587 -701.5 1101.587 -698 1091.587 -694.5 1091.587 -701.5"/></g><g id="node15" class="node"><title>nid-0a</title><ellipse cx="1115.187" cy="-1112" fill="none" stroke="red" rx="36.125" ry="26.741"/><text x="1115.187" y="-1115.8" fill="#000" font-family="Times,serif" font-size="14" text-anchor="middle">0x0a</text><text x="1115.187" y="-1100.8" fill="#000" font-family="Times,serif" font-size="14" text-anchor="middle">Stereo</text></g><g id="node16" class="node"><title>nid-25</title><polygon fill="none" stroke="#000" points="826.801 -1150 744.596 -1150 723.449 -1074 805.654 -1074 826.801 -1150"/><text x="775.125" y="-1115.8" fill="#000" font-family="Times,serif" font-size="14" text-anchor="middle">0x25</text><text x="775.125" y="-1100.8" fill="#000" font-family="Times,serif" font-size="14" text-anchor="middle">Mono</text></g><g id="edge9" class="edge"><title>nid-25-&gt;nid-0a</title><path fill="none" stroke="#333" d="M816.4832,-1112C880.246,-1112 1002.1477,-1112 1068.8153,-1112"/><polygon fill="#333" stroke="#333" points="1069.023 -1115.5 1079.023 -1112 1069.023 -1108.5 1069.023 -1115.5"/></g><g id="node17" class="node"><title>nid-12-out</title><polygon fill="none" stroke="#0f0" points="458.625 -870 316.625 -870 316.625 -802 458.625 -802 458.625 -870"/><text x="387.625" y="-854.8" fill="#000" font-family="Times,serif" font-size="14" text-anchor="middle">0x12</text><text x="387.625" y="-839.8" fill="#000" font-family="Times,serif" font-size="14" text-anchor="middle">[Fixed] Mic at Int N/A</text><text x="387.625" y="-824.8" fill="#000" font-family="Times,serif" font-size="14" text-anchor="middle">Stereo</text><text x="387.625" y="-809.8" fill="#000" font-family="Times,serif" font-size="14" text-anchor="middle">IN</text></g><g id="edge36" class="edge"><title>nid-12-out-&gt;nid-24</title><path fill="none" stroke="silver" stroke-dasharray="5 2" d="M458.6984,-862.045C533.4602,-889.4416 649.6206,-932.0087 718.4548,-957.2332"/><polygon fill="silver" stroke="silver" points="717.663 -960.671 728.257 -960.825 720.072 -954.098 717.663 -960.671"/></g><g id="edge29" class="edge"><title>nid-12-out-&gt;nid-22</title><path fill="none" stroke="silver" stroke-dasharray="5 2" d="M458.6984,-810.6887C536.7922,-782.8772 660.0569,-738.979 727.3684,-715.0075"/><polygon fill="silver" stroke="silver" points="728.635 -718.272 736.882 -711.62 726.287 -711.677 728.635 -718.272"/></g><g id="node18" class="node"><title>nid-13-out</title><polygon fill="none" stroke="#0f0" points="458.625 -1054 316.625 -1054 316.625 -986 458.625 -986 458.625 -1054"/><text x="387.625" y="-1038.8" fill="#000" font-family="Times,serif" font-size="14" text-anchor="middle">0x13</text><text x="387.625" y="-1023.8" fill="#000" font-family="Times,serif" font-size="14" text-anchor="middle">[Fixed] Mic at Int N/A</text><text x="387.625" y="-1008.8" fill="#000" font-family="Times,serif" font-size="14" text-anchor="middle">Stereo</text><text x="387.625" y="-993.8" fill="#000" font-family="Times,serif" font-size="14" text-anchor="middle">IN</text></g><g id="edge37" class="edge"><title>nid-13-out-&gt;nid-24</title><path fill="none" stroke="#333" d="M458.6984,-1012.2966C535.5931,-1003.9622 656.2821,-990.881 724.2285,-983.5165"/><polygon fill="#333" stroke="#333" points="724.698 -986.986 734.263 -982.429 723.943 -980.027 724.698 -986.986"/></g><g id="edge34" class="edge"><title>nid-13-out-&gt;nid-23</title><path fill="none" stroke="silver" stroke-dasharray="5 2" d="M456.8431,-985.854C464.4022,-981.9316 471.9518,-977.9292 479.1249,-974 569.711,-924.3792 672.8349,-861.5793 730.3215,-825.9851"/><polygon fill="silver" stroke="silver" points="732.493 -828.757 739.147 -820.512 728.804 -822.808 732.493 -828.757"/></g><g id="node23" class="node"><title>nid-18-out</title><polygon fill="none" stroke="#0f0" points="468.125 -962 307.125 -962 307.125 -894 468.125 -894 468.125 -962"/><text x="387.625" y="-946.8" fill="#000" font-family="Times,serif" font-size="14" text-anchor="middle">0x18</text><text x="387.625" y="-931.8" fill="#000" font-family="Times,serif" font-size="14" text-anchor="middle">[N/A] Speaker at Ext Rear</text><text x="387.625" y="-916.8" fill="#000" font-family="Times,serif" font-size="14" text-anchor="middle">Stereo</text><text x="387.625" y="-901.8" fill="#000" font-family="Times,serif" font-size="14" text-anchor="middle">IN Detect</text></g><g id="edge38" class="edge"><title>nid-18-out-&gt;nid-24</title><path fill="none" stroke="silver" stroke-dasharray="5 2" d="M468.3859,-938.4208C544.2867,-948.2144 655.7478,-962.5965 721.332,-971.059"/><polygon fill="silver" stroke="silver" points="721.086 -974.556 731.452 -972.365 721.982 -967.614 721.086 -974.556"/></g><g id="edge35" class="edge"><title>nid-18-out-&gt;nid-23</title><path fill="none" stroke="silver" stroke-dasharray="5 2" d="M468.3859,-900.906C546.5527,-874.6823 662.4346,-835.8058 727.081,-814.1179"/><polygon fill="silver" stroke="silver" points="728.252 -817.417 736.62 -810.918 726.026 -810.78 728.252 -817.417"/></g><g id="edge30" class="edge"><title>nid-18-out-&gt;nid-22</title><path fill="none" stroke="silver" stroke-dasharray="5 2" d="M457.5522,-893.9804C464.9052,-890.0669 472.2138,-886.0314 479.1249,-882 571.5459,-828.0884 587.0929,-802.573 679.1249,-748 695.0688,-738.5456 712.9788,-728.9537 728.9725,-720.7338"/><polygon fill="silver" stroke="silver" points="730.817 -723.722 738.139 -716.064 727.639 -717.485 730.817 -723.722"/></g><g id="edge41" class="edge"><title>nid-18-out-&gt;nid-25</title><path fill="none" stroke="silver" stroke-dasharray="5 2" d="M459.6025,-962.1778C534.334,-997.6632 649.7124,-1052.4493 718.29,-1085.0126"/><polygon fill="silver" stroke="silver" points="717.112 -1088.328 727.647 -1089.456 720.115 -1082.005 717.112 -1088.328"/></g><g id="node24" class="node"><title>nid-19-out</title><polygon fill="none" stroke="#0f0" points="468.125 -778 307.125 -778 307.125 -710 468.125 -710 468.125 -778"/><text x="387.625" y="-762.8" fill="#000" font-family="Times,serif" font-size="14" text-anchor="middle">0x19</text><text x="387.625" y="-747.8" fill="#000" font-family="Times,serif" font-size="14" text-anchor="middle">[N/A] Speaker at Ext Rear</text><text x="387.625" y="-732.8" fill="#000" font-family="Times,serif" font-size="14" text-anchor="middle">Stereo</text><text x="387.625" y="-717.8" fill="#000" font-family="Times,serif" font-size="14" text-anchor="middle">IN Detect</text></g><g id="edge31" class="edge"><title>nid-19-out-&gt;nid-23</title><path fill="none" stroke="#333" d="M468.3859,-755.2544C544.1815,-765.8169 655.4387,-781.3211 721.0589,-790.4656"/><polygon fill="#333" stroke="#333" points="720.799 -793.963 731.186 -791.877 721.765 -787.03 720.799 -793.963"/></g><g id="edge26" class="edge"><title>nid-19-out-&gt;nid-22</title><path fill="none" stroke="#333" d="M468.3859,-734.4129C545.4447,-725.2653 659.1571,-711.7665 724.3015,-704.0332"/><polygon fill="#333" stroke="#333" points="724.809 -707.498 734.327 -702.843 723.984 -700.547 724.809 -707.498"/></g><g id="node25" class="node"><title>nid-1a-out</title><polygon fill="none" stroke="#0f0" points="468.125 -686 307.125 -686 307.125 -618 468.125 -618 468.125 -686"/><text x="387.625" y="-670.8" fill="#000" font-family="Times,serif" font-size="14" text-anchor="middle">0x1a</text><text x="387.625" y="-655.8" fill="#000" font-family="Times,serif" font-size="14" text-anchor="middle">[N/A] Speaker at Ext Rear</text><text x="387.625" y="-640.8" fill="#000" font-family="Times,serif" font-size="14" text-anchor="middle">Stereo</text><text x="387.625" y="-625.8" fill="#000" font-family="Times,serif" font-size="14" text-anchor="middle">IN Detect</text></g><g id="edge32" class="edge"><title>nid-1a-out-&gt;nid-23</title><path fill="none" stroke="silver" stroke-dasharray="5 2" d="M468.3859,-682.4287C543.2249,-710.6261 652.6362,-751.8494 718.5528,-776.6851"/><polygon fill="silver" stroke="silver" points="717.361 -779.976 727.953 -780.227 719.83 -773.426 717.361 -779.976"/></g><g id="edge27" class="edge"><title>nid-1a-out-&gt;nid-22</title><path fill="none" stroke="silver" stroke-dasharray="5 2" d="M468.3859,-661.5871C544.2867,-670.5973 655.7478,-683.8288 721.332,-691.6143"/><polygon fill="silver" stroke="silver" points="721.109 -695.112 731.452 -692.816 721.934 -688.161 721.109 -695.112"/></g><g id="node27" class="node"><title>nid-1b-ampout</title><polygon fill="none" stroke="#00f" points="1142.187 -418 1101.687 -436 1101.687 -400 1142.187 -418"/></g><g id="edge19" class="edge"><title>nid-1b-in-&gt;nid-1b-ampout</title><path fill="none" stroke="#00f" d="M858.7491,-418C938.3083,-418 1052.243,-418 1096.5586,-418"/><polygon fill="#00f" stroke="#00f" points="1096.611 -419.75 1101.611 -418 1096.611 -416.25 1096.611 -419.75"/></g><g id="node28" class="node"><title>nid-1b-out</title><polygon fill="none" stroke="#0f0" points="471.125 -594 304.125 -594 304.125 -526 471.125 -526 471.125 -594"/><text x="387.625" y="-578.8" fill="#000" font-family="Times,serif" font-size="14" text-anchor="middle">0x1b</text><text x="387.625" y="-563.8" fill="#000" font-family="Times,serif" font-size="14" text-anchor="middle">[Jack] Line Out at Ext Rear</text><text x="387.625" y="-548.8" fill="#000" font-family="Times,serif" font-size="14" text-anchor="middle">Stereo</text><text x="387.625" y="-533.8" fill="#000" font-family="Times,serif" font-size="14" text-anchor="middle">IN OUT EAPD Detect</text></g><g id="edge33" class="edge"><title>nid-1b-out-&gt;nid-23</title><path fill="none" stroke="silver" stroke-dasharray="5 2" d="M458.1535,-594.093C465.3193,-597.9614 472.4214,-601.967 479.1249,-606 572.5371,-662.1997 586.1182,-691.1318 679.1249,-748 691.1228,-755.336 704.3098,-762.6558 716.9654,-769.3419"/><polygon fill="silver" stroke="silver" points="715.577 -772.566 726.062 -774.09 718.816 -766.36 715.577 -772.566"/></g><g id="edge28" class="edge"><title>nid-1b-out-&gt;nid-22</title><path fill="none" stroke="silver" stroke-dasharray="5 2" d="M471.2295,-589.774C546.0391,-616.4159 653.6544,-654.7408 718.7236,-677.9139"/><polygon fill="silver" stroke="silver" points="717.803 -681.301 728.398 -681.359 720.152 -674.707 717.803 -681.301"/></g><g id="node29" class="node"><title>nid-1b-ampin</title><polygon fill="none" stroke="#00f" points="79.062 -560 38.562 -578 38.562 -542 79.062 -560"/></g><g id="edge20" class="edge"><title>nid-1b-ampin-&gt;nid-1b-out</title><path fill="none" stroke="#00f" d="M79.2387,-560C126.4734,-560 225.6653,-560 298.8583,-560"/><polygon fill="#00f" stroke="#00f" points="299.082 -561.75 304.082 -560 299.082 -558.25 299.082 -561.75"/></g><g id="node31" class="node"><title>nid-1f-out</title><polygon fill="none" stroke="#0f0" points="468.125 -1238 307.125 -1238 307.125 -1170 468.125 -1170 468.125 -1238"/><text x="387.625" y="-1222.8" fill="#000" font-family="Times,serif" font-size="14" text-anchor="middle">0x1f</text><text x="387.625" y="-1207.8" fill="#000" font-family="Times,serif" font-size="14" text-anchor="middle">[N/A] Speaker at Ext Rear</text><text x="387.625" y="-1192.8" fill="#000" font-family="Times,serif" font-size="14" text-anchor="middle">Stereo</text><text x="387.625" y="-1177.8" fill="#000" font-family="Times,serif" font-size="14" text-anchor="middle">IN Detect</text></g><g id="edge40" class="edge"><title>nid-1f-out-&gt;nid-25</title><path fill="none" stroke="#333" d="M468.3859,-1184.8258C546.2869,-1166.3306 661.647,-1138.9419 726.4198,-1123.5635"/><polygon fill="#333" stroke="#333" points="727.447 -1126.917 736.368 -1121.202 725.83 -1120.106 727.447 -1126.917"/></g><g id="node33" class="node"><title>nid-29-out</title><polygon fill="none" stroke="#0f0" points="468.125 -1146 307.125 -1146 307.125 -1078 468.125 -1078 468.125 -1146"/><text x="387.625" y="-1130.8" fill="#000" font-family="Times,serif" font-size="14" text-anchor="middle">0x29</text><text x="387.625" y="-1115.8" fill="#000" font-family="Times,serif" font-size="14" text-anchor="middle">[N/A] Speaker at Ext Rear</text><text x="387.625" y="-1100.8" fill="#000" font-family="Times,serif" font-size="14" text-anchor="middle">Stereo</text><text x="387.625" y="-1085.8" fill="#000" font-family="Times,serif" font-size="14" text-anchor="middle">IN Detect</text></g><g id="edge39" class="edge"><title>nid-29-out-&gt;nid-24</title><path fill="none" stroke="silver" stroke-dasharray="5 2" d="M468.3859,-1084.0723C546.6582,-1057.0053 662.7474,-1016.8609 727.3425,-994.5235"/><polygon fill="silver" stroke="silver" points="728.564 -997.804 736.871 -991.228 726.276 -991.189 728.564 -997.804"/></g><g id="edge42" class="edge"><title>nid-29-out-&gt;nid-25</title><path fill="none" stroke="silver" stroke-dasharray="5 2" d="M468.3859,-1112C545.2342,-1112 658.536,-1112 723.7664,-1112"/><polygon fill="silver" stroke="silver" points="723.81 -1115.5 733.81 -1112 723.81 -1108.5 723.81 -1115.5"/></g></g></svg>